<svg version="1.1" id="Layer_1" xmlns="http://www.w3.org/2000/svg" xmlns:xlink="http://www.w3.org/1999/xlink" x="0px" y="0px"
	 width="100%" viewBox="0 0 1024 1024" enable-background="new 0 0 1024 1024" xml:space="preserve">
<path fill="#000000" opacity="1.000000" stroke="none" 
	d="
M577.267761,688.799316 
	C572.343201,684.780518 567.537781,684.766724 561.661194,686.057617 
	C538.630615,691.116394 515.428284,692.634949 491.804718,689.579224 
	C436.406464,682.413330 392.967468,655.722534 360.665131,610.630371 
	C343.197845,586.246948 332.472870,558.861023 328.897095,529.117798 
	C319.323761,449.486908 355.150696,376.888916 427.425415,337.832184 
	C445.842957,327.879486 465.614685,321.393799 486.482483,318.777161 
	C489.788483,318.362610 490.735901,316.995728 490.688873,314.006592 
	C490.599731,308.341858 490.542816,302.670898 490.714661,297.009888 
	C490.818481,293.590729 489.550018,292.320374 486.075653,292.253906 
	C479.273743,292.123779 472.440857,293.029724 465.665161,291.456238 
	C453.877502,288.718933 446.595886,278.202728 447.673004,265.172699 
	C448.658203,253.254349 458.099396,243.847321 470.065918,243.760925 
	C499.061951,243.551575 528.062195,243.518982 557.057373,243.781937 
	C570.351807,243.902481 579.377869,254.159103 579.454163,268.170685 
	C579.527710,281.679962 569.904175,291.606964 555.958862,292.236298 
	C551.134705,292.454010 546.294556,292.374817 541.462402,292.338898 
	C538.563110,292.317352 537.241821,293.473816 537.313843,296.523132 
	C537.455322,302.519287 537.452148,308.523346 537.314331,314.519653 
	C537.246155,317.483124 538.404053,318.355713 541.338379,318.789856 
	C581.379089,324.713898 616.536255,341.124176 645.625122,369.361572 
	C673.658752,396.574585 691.103271,429.735474 698.438660,468.195282 
	C701.667480,485.123962 702.898010,502.141510 701.292908,519.294983 
	C697.862000,555.960266 685.317688,589.104370 662.797729,618.404175 
	C653.404846,630.624878 642.614319,641.444824 631.015137,651.519165 
	C630.534180,651.936951 630.162292,652.480286 629.237915,653.540527 
	C635.180542,656.982117 640.829346,660.338440 646.557312,663.553650 
	C659.486206,670.810852 672.386902,678.123535 685.445984,685.140015 
	C689.499817,687.317932 690.112305,689.526367 687.864807,693.437866 
	C680.313232,706.580078 672.825745,719.764709 665.647827,733.112732 
	C663.449341,737.201050 661.486755,737.780701 657.514099,735.451538 
	C630.927734,719.864258 604.234436,704.459351 577.267761,688.799316 
M509.919739,366.487976 
	C504.140228,367.119049 498.344727,367.630676 492.583862,368.401337 
	C464.054565,372.217834 439.210938,384.159363 418.910339,404.339203 
	C382.809326,440.225555 370.269623,483.902679 380.752045,533.375000 
	C389.537476,574.838379 413.742188,605.690063 451.373169,625.318176 
	C477.062500,638.717590 504.715240,642.154053 533.328918,638.718506 
	C562.336182,635.235840 587.982361,624.138550 608.949280,603.680359 
	C646.810486,566.737854 660.461243,521.851196 648.054626,470.560120 
	C632.681763,407.006317 576.748413,365.429321 509.919739,366.487976 
z"/>
<path fill="#000000" opacity="1.000000" stroke="none" 
	d="
M517.054565,530.945862 
	C512.469055,526.322327 508.362427,521.689453 503.751801,517.628906 
	C496.411865,511.164642 493.851837,503.059570 493.911224,493.597534 
	C494.045990,472.120850 493.831268,450.641327 494.071930,429.166473 
	C494.139893,423.101776 494.023193,416.774353 498.077972,411.481293 
	C503.359711,404.586517 512.087158,401.786346 520.389954,404.410736 
	C528.737732,407.049316 534.139771,414.316925 534.212036,423.712433 
	C534.360596,443.024658 534.440613,462.340271 534.216919,481.650635 
	C534.157654,486.762756 535.806335,490.472076 539.411682,493.957367 
	C547.788086,502.054840 556.154785,510.194397 564.024780,518.775940 
	C574.584412,530.290161 569.889160,548.908203 555.591675,552.890076 
	C546.062744,555.543945 537.927246,552.732178 531.178650,545.565125 
	C526.614746,540.718140 521.935181,535.980042 517.054565,530.945862 
z"/>
</svg>